<?xml version="1.0" encoding="utf-8" ?><!-- created by svgstack.com | Attribution is required. --><svg xmlns="http://www.w3.org/2000/svg" xmlns:xlink="http://www.w3.org/1999/xlink" width="1024" height="1024"><path fill="#0E1C2D" d="M72.4678 91.7116C89.7979 91.1044 107.299 91.5558 124.649 91.5508C138.021 91.5469 176.574 90.0326 186.727 93.2967C196.195 96.3407 202.161 104.056 206.706 112.457C214.421 112.538 222.953 114.295 229.564 118.425C235.092 121.878 239.341 127.037 242.007 132.961C246.093 142.044 246.859 152.964 248.412 162.743C250.596 176.492 252.541 190.547 255.777 204.087L723.501 204.056L865.277 203.886L909.134 203.78C918.144 203.762 927.411 203.281 936.372 204.27C947.99 205.551 957.921 210.056 966.601 217.923Q967.593 218.826 968.538 219.776Q969.484 220.726 970.382 221.722Q971.28 222.718 972.128 223.757Q972.976 224.795 973.771 225.875Q974.567 226.954 975.308 228.071Q976.05 229.188 976.735 230.341Q977.421 231.493 978.049 232.678Q978.677 233.862 979.245 235.077Q979.814 236.291 980.322 237.532Q980.831 238.772 981.277 240.037Q981.724 241.301 982.108 242.586Q982.491 243.87 982.811 245.172Q983.131 246.474 983.387 247.791Q983.642 249.107 983.833 250.434Q984.023 251.762 984.148 253.096Q984.272 254.431 984.331 255.771C985.066 275.502 971.748 315.997 966.616 336.766L922.247 514.049Q913.491 549.552 905.161 585.158C902.458 596.588 900.522 608.529 896.969 619.706C894.467 627.576 890.537 634.158 884.85 640.153C877.244 648.172 866.742 654.385 855.739 656.093C841.224 658.346 820.24 657.126 805.095 657.128L709.343 657.094L468.336 656.826C423.049 656.782 377.639 656.105 332.366 657.084C333.234 667.726 335.838 678.127 337.187 688.703C338.32 697.595 338.111 706.48 337.977 715.418L690.909 715.476L810.083 715.469C831.884 715.467 853.935 716.176 875.701 715.154C890.209 714.735 905.815 714.836 917.032 725.466Q917.648 726.044 918.234 726.652Q918.82 727.261 919.375 727.898Q919.929 728.535 920.451 729.2Q920.972 729.865 921.459 730.555Q921.946 731.245 922.397 731.959Q922.849 732.673 923.264 733.409Q923.678 734.145 924.055 734.901Q924.432 735.657 924.77 736.432Q925.107 737.206 925.406 737.996Q925.704 738.786 925.962 739.591Q926.219 740.395 926.436 741.212Q926.653 742.028 926.828 742.855Q927.003 743.681 927.135 744.515Q927.268 745.35 927.359 746.19Q927.449 747.029 927.497 747.873Q927.544 748.716 927.549 749.561C927.657 758.456 924.207 767.546 917.89 773.862C913.94 777.811 908.458 781.333 903.016 782.711C889.195 786.211 873.044 784.158 858.838 784.123L794.588 784.167Q797.481 786.998 800.229 789.97C814.738 805.814 822.835 826.101 821.778 847.662Q821.679 849.54 821.488 851.41Q821.298 853.28 821.015 855.139Q820.733 856.998 820.36 858.84Q819.986 860.683 819.523 862.505Q819.06 864.327 818.508 866.124Q817.956 867.922 817.317 869.69Q816.678 871.458 815.952 873.192Q815.227 874.927 814.417 876.623Q813.608 878.32 812.716 879.975Q811.824 881.63 810.852 883.24Q809.88 884.849 808.83 886.409Q807.781 887.969 806.656 889.475Q805.531 890.981 804.333 892.431Q803.136 893.88 801.869 895.269Q800.602 896.658 799.268 897.983Q797.934 899.308 796.537 900.566C780.383 915.131 759.591 921.627 738.019 920.489C718.698 919.47 699.335 909.304 686.523 894.953C673.391 880.246 667.091 860.065 668.355 840.506C669.8 818.136 681.368 800.42 697.878 785.998C656.272 785.088 614.522 785.82 572.9 785.778C531.945 785.738 490.941 784.906 449.991 785.607Q454.897 790.134 459.575 794.896C473.133 808.941 480.031 826.787 479.655 846.289C479.275 866.009 470.836 885.821 456.555 899.497C440.888 914.501 420.59 921.865 399.003 921.313Q398.035 921.287 397.068 921.238Q396.101 921.188 395.135 921.115Q394.17 921.041 393.207 920.944Q392.243 920.846 391.283 920.725Q390.322 920.603 389.365 920.458Q388.407 920.313 387.454 920.144Q386.5 919.975 385.551 919.783Q384.602 919.59 383.659 919.374Q382.715 919.158 381.776 918.919Q380.838 918.679 379.906 918.417Q378.974 918.154 378.049 917.869Q377.124 917.583 376.206 917.275Q375.288 916.966 374.378 916.635Q373.468 916.304 372.567 915.95Q371.665 915.597 370.773 915.221Q369.881 914.845 368.998 914.447Q368.115 914.049 367.242 913.629Q366.37 913.21 365.508 912.768Q364.646 912.327 363.795 911.865Q362.945 911.402 362.106 910.919Q361.267 910.435 360.44 909.931Q359.613 909.427 358.799 908.903Q357.985 908.378 357.185 907.834Q356.384 907.289 355.597 906.725Q354.81 906.161 354.037 905.578Q353.265 904.994 352.507 904.391Q351.749 903.789 351.006 903.168Q350.263 902.547 349.536 901.907Q348.809 901.268 348.098 900.61Q347.387 899.953 346.692 899.278Q345.997 898.604 345.32 897.912Q344.642 897.22 343.982 896.512C329.919 881.69 323.313 862.695 323.988 842.359C324.8 817.89 335.514 801.682 352.936 785.489Q333.616 785.374 314.297 785.475C290.17 785.582 267.663 786.763 249.152 768.555Q248.042 767.478 246.986 766.348Q245.931 765.218 244.933 764.037Q243.935 762.856 242.997 761.627Q242.058 760.397 241.182 759.123Q240.306 757.849 239.494 756.533Q238.682 755.217 237.936 753.863Q237.19 752.508 236.512 751.118Q235.834 749.728 235.226 748.306Q234.618 746.885 234.081 745.434Q233.544 743.984 233.08 742.509Q232.616 741.034 232.225 739.538Q231.834 738.042 231.518 736.528Q231.202 735.014 230.961 733.487Q230.721 731.959 230.556 730.422Q230.391 728.884 230.303 727.34Q230.215 725.796 230.203 724.25C230.112 707.935 235.866 693.29 247.353 681.662C266.822 661.955 288.088 663.236 313.767 663.121L259.427 341.568L237.094 208.524C233.889 189.521 231.411 170.255 227.632 151.369C226.801 147.218 225.94 142.639 223.653 139.005C220.252 133.6 214.631 132.575 208.865 131.287C207.952 136.594 205.704 142.045 202.605 146.453C197.295 154.005 189.844 158.06 180.845 159.566C168.31 161.663 145.585 160.478 132.101 160.477L96.794 160.457C86.766 160.444 76.4467 160.734 66.5182 159.131C61.9518 158.394 57.7253 156.443 53.9809 153.749Q53.2813 153.238 52.6081 152.694Q51.9348 152.149 51.2895 151.571Q50.6442 150.994 50.0284 150.385Q49.4127 149.776 48.828 149.137Q48.2433 148.498 47.6912 147.831Q47.139 147.164 46.6208 146.47Q46.1026 145.776 45.6195 145.057Q45.1365 144.338 44.6898 143.596Q44.2431 142.854 43.834 142.091Q43.4248 141.328 43.0541 140.545Q42.6835 139.762 42.3522 138.962Q42.021 138.162 41.73 137.346Q41.439 136.53 41.189 135.701Q40.939 134.872 40.7306 134.032Q40.5221 133.191 40.3558 132.341Q40.1895 131.491 40.0657 130.634C38.717 121.456 41.2568 112.775 46.8442 105.422C53.3407 96.8732 62.0484 93.0657 72.4678 91.7116ZM315.51 682.412C295.928 682.35 276.187 679.852 261.027 694.883Q260.296 695.597 259.602 696.347Q258.908 697.097 258.253 697.881Q257.597 698.665 256.982 699.481Q256.367 700.297 255.793 701.143Q255.22 701.988 254.69 702.862Q254.159 703.735 253.674 704.634Q253.188 705.533 252.748 706.456Q252.308 707.378 251.915 708.321Q251.522 709.265 251.177 710.226Q250.832 711.188 250.536 712.166Q250.239 713.144 249.992 714.136Q249.746 715.127 249.549 716.13Q249.352 717.133 249.206 718.144Q249.06 719.155 248.965 720.173Q248.87 721.19 248.826 722.211Q248.782 723.232 248.79 724.254C248.764 735.847 254.349 747.114 262.459 755.196C262.589 755.327 262.725 755.453 262.858 755.581C274.134 764.879 283.226 766.126 297.488 766.141L317.92 766.104L318.113 727.45C318.18 713.627 319.664 695.632 315.647 682.497L315.51 682.412Z"/><path fill="#C14519" d="M189.895 122.396C190.166 127.307 190.221 132.841 186.828 136.819C183.106 141.181 174.324 141.011 169.037 141.254C151.672 142.052 134.351 141.437 116.982 141.528C102.463 141.604 87.3572 142.736 72.9218 141.037C69.5219 140.637 65.834 140.21 63.1767 137.861C60.342 135.356 58.8399 131.22 58.7141 127.497C58.6555 125.762 58.9551 124.06 59.3457 122.379C62.1042 124.305 65.1113 126.175 68.3933 127.046C76.4446 129.184 86.8887 128.067 95.2199 128.07L134.805 128.062C147.179 128.061 166.38 129.24 177.962 127.556C182.413 126.91 186.115 124.675 189.895 122.396Z"/><path fill="#ED9A2B" d="M59.3457 122.379C60.9659 118.582 64.2532 113.756 68.1304 112.081C75.2938 108.987 161.503 109.878 174.325 110.608C176.729 110.745 179.431 110.945 181.641 111.943C186.143 113.977 188.158 118.064 189.895 122.396C186.115 124.675 182.413 126.91 177.962 127.556C166.38 129.24 147.179 128.061 134.805 128.062L95.2199 128.07C86.8887 128.067 76.4446 129.184 68.3933 127.046C65.1113 126.175 62.1042 124.305 59.3457 122.379Z"/><path fill="#41505E" d="M691.109 827.436C695.988 838.961 702.453 851.209 714.734 856.301C714.892 856.366 715.055 856.42 715.216 856.48L715.458 856.842C717.311 859.649 718.657 862.774 720.555 865.536C724.351 871.061 731.763 875.438 738.253 876.835C749.204 879.192 755.13 875.401 764.531 870.783C765.995 870.932 767.289 870.852 768.745 870.675C784.155 868.803 792.913 861.326 802.187 849.469C801.974 852.526 801.516 855.421 800.745 858.386C796.778 873.629 786.689 885.977 773.145 893.852Q771.936 894.562 770.694 895.211Q769.452 895.86 768.179 896.446Q766.906 897.033 765.605 897.555Q764.304 898.078 762.979 898.536Q761.655 898.993 760.309 899.385Q758.963 899.776 757.599 900.1Q756.235 900.424 754.857 900.68Q753.479 900.937 752.09 901.124Q750.701 901.311 749.305 901.43Q747.908 901.548 746.507 901.597Q745.106 901.646 743.705 901.625Q742.303 901.605 740.904 901.515Q739.506 901.425 738.113 901.265Q736.72 901.106 735.337 900.878Q733.954 900.65 732.585 900.353Q731.215 900.057 729.861 899.693C715.324 895.818 703.179 885.869 695.731 872.911C687.249 858.153 686.795 843.554 691.109 827.436Z"/><path fill="#41505E" d="M456.923 864.442C455.099 870.671 451.72 876.494 447.653 881.519C437.793 893.699 422.836 901.152 407.308 902.684C391.195 904.273 375.564 899.718 363.051 889.392Q361.961 888.505 360.917 887.564Q359.873 886.623 358.878 885.63Q357.882 884.638 356.938 883.597Q355.994 882.555 355.104 881.468Q354.213 880.38 353.379 879.249Q352.544 878.118 351.768 876.947Q350.991 875.775 350.275 874.566Q349.558 873.357 348.904 872.113Q348.249 870.869 347.658 869.594Q347.066 868.319 346.54 867.016Q346.014 865.713 345.554 864.385Q345.094 863.056 344.701 861.707Q344.309 860.357 343.985 858.99Q343.661 857.622 343.406 856.24Q343.151 854.857 342.966 853.464Q342.781 852.071 342.667 850.67Q342.533 849.269 342.469 847.864Q342.404 846.458 342.41 845.051Q342.415 843.644 342.491 842.239Q342.566 840.834 342.711 839.435Q342.856 838.035 343.07 836.645Q343.284 835.254 343.567 833.876Q343.85 832.498 344.201 831.135Q344.553 829.773 344.971 828.429Q345.389 827.086 345.874 825.765Q346.358 824.444 346.907 823.149Q347.457 821.853 348.07 820.587Q348.683 819.32 349.358 818.086Q350.033 816.852 350.769 815.652Q351.504 814.453 352.299 813.291Q353.093 812.13 353.944 811.009Q354.795 809.889 355.7 808.812C364.232 798.771 376.035 789.848 389.57 788.727C374.804 801.779 361.307 817.041 360.074 837.724C359.371 849.535 362.924 862.157 370.872 871.106C378.12 879.266 388.225 883.041 398.954 883.552C411.899 884.168 425.995 880.923 437.464 874.923C443.997 871.506 450.163 867.42 456.923 864.442Z"/><path fill="#6A7780" d="M691.109 827.436C699.328 811.228 710.682 796.341 728.619 790.424C743.043 785.666 759.71 787.649 773.147 794.469Q774.355 795.094 775.531 795.777Q776.707 796.461 777.848 797.201Q778.988 797.942 780.091 798.739Q781.194 799.535 782.255 800.385Q783.317 801.235 784.336 802.136Q785.355 803.037 786.327 803.988Q787.3 804.938 788.225 805.936Q789.149 806.934 790.024 807.976Q790.898 809.018 791.719 810.102Q792.541 811.186 793.308 812.309Q794.075 813.432 794.785 814.592Q795.496 815.752 796.148 816.945Q796.8 818.139 797.393 819.363Q797.985 820.588 798.516 821.84Q799.048 823.092 799.516 824.369Q799.985 825.646 800.39 826.944C802.429 833.341 804.247 842.921 802.187 849.469C792.913 861.326 784.155 868.803 768.745 870.675C767.289 870.852 765.995 870.932 764.531 870.783C755.13 875.401 749.204 879.192 738.253 876.835C731.763 875.438 724.351 871.061 720.555 865.536C718.657 862.774 717.311 859.649 715.458 856.842L715.216 856.48C715.055 856.42 714.892 856.366 714.734 856.301C702.453 851.209 695.988 838.961 691.109 827.436Z"/><path fill="#0E1C2D" d="M715.216 856.48C712.605 847.313 712.147 838.418 716.868 829.785Q717.244 829.081 717.656 828.397Q718.067 827.714 718.513 827.052Q718.959 826.39 719.437 825.751Q719.916 825.113 720.427 824.5Q720.937 823.886 721.478 823.3Q722.019 822.713 722.589 822.155Q723.159 821.596 723.757 821.068Q724.355 820.539 724.979 820.041Q725.603 819.543 726.251 819.078Q726.899 818.613 727.57 818.181Q728.241 817.749 728.933 817.352Q729.626 816.955 730.337 816.593Q731.048 816.232 731.777 815.907Q732.506 815.582 733.251 815.295Q733.995 815.007 734.753 814.758Q735.511 814.508 736.281 814.298C744.679 811.989 753.675 813.557 761.118 817.936C768.535 822.298 773.972 829.062 776.106 837.466C778.179 845.631 776.513 854.145 772.219 861.295Q770.617 863.91 768.687 866.292Q766.757 868.674 764.531 870.783C755.13 875.401 749.204 879.192 738.253 876.835C731.763 875.438 724.351 871.061 720.555 865.536C718.657 862.774 717.311 859.649 715.458 856.842L715.216 856.48Z"/><path fill="#1CA0B0" d="M719.927 836.289C727.806 848.569 738.067 855.275 752.347 858.418Q759.58 859.972 766.977 860.104C764.5 863.582 761.867 866.614 758.141 868.818C752.141 872.366 745.102 872.65 738.501 870.761C731.265 868.69 725.14 863.988 721.603 857.289C718.073 850.605 717.711 843.434 719.927 836.289Z"/><path fill="#96C9CC" d="M719.927 836.289C722.939 829.133 727.667 823.296 735.112 820.38C741.782 817.768 749.004 818.1 755.485 821.104C762.214 824.223 767.362 829.788 769.761 836.839C772.401 844.598 771.013 852.386 767.313 859.477L766.977 860.104Q759.58 859.973 752.347 858.418C738.067 855.275 727.806 848.569 719.927 836.289Z"/><defs><linearGradient id="gradient_0" gradientUnits="userSpaceOnUse" x1="379.14728" y1="877.52191" x2="440.45175" y2="803.53137"><stop offset="0" stop-color="#546472"/><stop offset="1" stop-color="#7D8F98"/></linearGradient></defs><path fill="url(#gradient_0)" d="M389.57 788.727C403.748 785.383 419.204 788.33 431.582 795.913C445.363 804.355 455.679 817.558 459.372 833.411C461.833 843.973 460.382 854.278 456.923 864.442C450.163 867.42 443.997 871.506 437.464 874.923C425.995 880.923 411.899 884.168 398.954 883.552C388.225 883.041 378.12 879.266 370.872 871.106C362.924 862.157 359.371 849.535 360.074 837.724C361.307 817.041 374.804 801.779 389.57 788.727Z"/><path fill="#0E1C2D" d="M399.712 813.622C406.937 813.236 413.653 814.521 419.706 818.768C426.762 823.719 431.578 831.826 433.045 840.276C434.491 848.607 431.914 856.971 427.074 863.757C421.937 870.958 414.804 875.085 406.126 876.489C398.061 877.098 390.591 875.815 383.841 871.137C377.108 866.471 372.638 859.065 371.204 851.041C369.716 842.715 371.28 834.399 376.165 827.444C381.934 819.229 390.062 815.36 399.712 813.622Z"/><path fill="#1CA0B0" d="M426.934 850.762C424.913 857.556 421.244 863.1 414.935 866.626C408.99 869.948 401.588 870.902 395.036 868.977Q394.417 868.797 393.809 868.586Q393.2 868.375 392.602 868.133Q392.005 867.891 391.421 867.619Q390.837 867.348 390.267 867.047Q389.697 866.746 389.143 866.416Q388.59 866.087 388.053 865.73Q387.517 865.373 386.999 864.989Q386.482 864.605 385.984 864.195Q385.487 863.786 385.011 863.352Q384.535 862.917 384.081 862.459Q383.628 862.002 383.198 861.521Q382.769 861.041 382.364 860.54Q381.959 860.038 381.58 859.517Q381.201 858.996 380.85 858.456Q380.498 857.916 380.174 857.359Q379.849 856.803 379.554 856.23C376.465 850.12 376.224 842.812 378.461 836.383C380.29 831.124 383.921 826.145 388.964 823.628C388.002 825.182 387.05 826.738 386.023 828.249C386.185 835.044 386.723 841.035 391.994 846.017C398.01 851.703 407.619 853.167 415.606 852.702C419.471 852.477 423.205 851.785 426.934 850.762Z"/><path fill="#96C9CC" d="M388.964 823.628C393.644 820.21 400.17 819.036 405.8 820.023Q406.431 820.138 407.055 820.284Q407.679 820.431 408.296 820.608Q408.912 820.785 409.518 820.993Q410.125 821.2 410.72 821.438Q411.316 821.676 411.899 821.943Q412.482 822.21 413.051 822.506Q413.62 822.801 414.173 823.125Q414.726 823.449 415.263 823.8Q415.8 824.151 416.318 824.528Q416.836 824.905 417.335 825.308Q417.834 825.711 418.313 826.138Q418.791 826.565 419.248 827.015Q419.704 827.465 420.137 827.938Q420.571 828.41 420.98 828.904Q421.389 829.397 421.774 829.911Q422.158 830.424 422.516 830.956C426.372 836.603 427.517 842.514 427.038 849.247L426.934 850.762C423.205 851.785 419.471 852.477 415.606 852.702C407.619 853.167 398.01 851.703 391.994 846.017C386.723 841.035 386.185 835.044 386.023 828.249C387.05 826.738 388.002 825.182 388.964 823.628Z"/><path fill="#FEFEFE" d="M879.644 734.727C887.264 734.603 897.132 733.91 903.275 739.306C906.281 741.946 907.65 745.675 907.789 749.612Q907.822 750.396 907.775 751.179Q907.729 751.962 907.603 752.736Q907.476 753.51 907.272 754.268Q907.068 755.025 906.788 755.757Q906.508 756.49 906.154 757.191Q905.801 757.891 905.379 758.552Q904.956 759.213 904.468 759.827Q903.981 760.441 903.433 761.003C900.311 764.145 896.445 764.968 892.179 765.296C873.697 766.714 855.049 765.522 836.537 765.519L730.095 765.742L367.25 766.027L337.464 766.018C337.223 755.88 336.816 745.282 338.457 735.255L703.435 734.974L816.303 734.979C837.368 734.98 858.597 735.517 879.644 734.727Z"/><path fill="#1CA0B0" d="M259.012 223.501L298.921 223.493L343.907 474.692L357.606 551.192C360.354 567.057 362.412 583.39 366.18 599.036L394.663 598.646C399.975 598.576 405.563 598.89 410.815 598.089C411.66 603.895 412.406 611.733 417.48 615.547C420.932 618.142 425.826 618.181 429.969 618.406C439.807 618.942 449.657 618.173 459.494 618.029C474.522 617.808 489.575 617.972 504.605 617.98L699.359 618.436L771.368 617.978C784.713 617.954 798.13 617.67 811.451 618.501L815.116 599.089C818.893 600.41 873.771 599.623 881.606 599.297C878.284 610.056 877.894 620.288 869.375 628.636C863.947 633.956 857.465 636.151 850.058 636.847C841.685 637.633 833.115 637.29 824.711 637.235L788.335 637.033L676.497 637.232L464.341 637.279Q396.782 637.727 329.228 636.789Q306.046 506.061 284.668 375.025L268.762 280.97C265.47 261.833 261.818 242.715 259.012 223.501Z"/><path fill="#96C9CC" d="M298.921 223.493Q374.182 222.942 449.444 223.489L720.16 223.5L865.88 223.501L906.241 223.469C915.292 223.377 924.522 222.735 933.539 223.578C941.715 224.342 948.899 227.353 954.779 233.156C961.79 240.073 965.217 249.587 965.167 259.351C965.088 274.763 955.182 304.562 951.019 320.717L922.066 433.739L893.141 551.294C889.245 567.276 885.954 583.433 881.606 599.297C873.771 599.623 818.893 600.41 815.116 599.089C818.869 583.159 821.501 566.882 824.563 550.804L840.56 467.061L865.068 339.336C868.277 322.639 872.018 305.957 874.964 289.225C875.44 286.522 876.528 280.993 875.602 278.393C875.079 276.923 873.717 275.254 872.326 274.547C869.163 272.94 865.374 272.412 861.862 272.199C848.794 271.405 835.5 272.481 822.404 272.539L742.549 272.555L458.796 272.554C449.622 272.551 440.432 272.654 431.26 272.518C418.876 272.335 366.741 270.51 358.908 273.215C355.269 274.472 354.122 276.828 352.514 280.046C353.938 293.477 357.032 306.651 359.417 319.93L373.12 395.356L410.815 598.089C405.563 598.89 399.975 598.576 394.663 598.646L366.18 599.036C362.412 583.39 360.354 567.057 357.606 551.192L343.907 474.692L298.921 223.493Z"/><path fill="#0E1C2D" d="M352.514 280.046C354.122 276.828 355.269 274.472 358.908 273.215C366.741 270.51 418.876 272.335 431.26 272.518C440.432 272.654 449.622 272.551 458.796 272.554L742.549 272.555L822.404 272.539C835.5 272.481 848.794 271.405 861.862 272.199C865.374 272.412 869.163 272.94 872.326 274.547C873.717 275.254 875.079 276.923 875.602 278.393C876.528 280.993 875.44 286.522 874.964 289.225C872.018 305.957 868.277 322.639 865.068 339.336L840.56 467.061L824.563 550.804C821.501 566.882 818.869 583.159 815.116 599.089L811.451 618.501C798.13 617.67 784.713 617.954 771.368 617.978L699.359 618.436L504.605 617.98C489.575 617.972 474.522 617.808 459.494 618.029C449.657 618.173 439.807 618.942 429.969 618.406C425.826 618.181 420.932 618.142 417.48 615.547C412.406 611.733 411.66 603.895 410.815 598.089L373.12 395.356L359.417 319.93C357.032 306.651 353.938 293.477 352.514 280.046Z"/><path fill="#FABE4A" d="M464.24 442L491.806 441.996Q494.334 458.516 496.254 475.118L495.868 475.912L494.769 476.097C488.822 474.114 467.846 448.568 464.24 442Z"/><path fill="#ED9A2B" d="M723.293 567.878C733.986 570.76 766.063 569.323 778.368 567.84C785.815 566.942 794.833 564.17 802.279 565.415C799.69 576.498 797.232 587.832 795.28 599.04L719.362 598.991C720.853 588.646 721.934 578.243 723.293 567.878Z"/><path fill="#ED9A2B" d="M624.497 550.097C637.28 553.395 649.798 557.456 662.695 560.39C676.169 563.455 689.923 565.319 703.522 567.716C702.423 578.135 701.148 588.706 699.379 599.031L624.487 599.291L624.497 550.097Z"/><path fill="#ED9A2B" d="M374.786 292.255C388.922 291.671 403.187 291.882 417.332 292.072C416.338 293.061 415.216 293.707 415.15 295.205C414.952 299.666 417.087 305.737 417.814 310.302C419.003 317.768 419.97 325.341 421.491 332.745Q423.655 342.921 426.363 352.966Q429.071 363.011 432.317 372.896Q435.562 382.781 439.334 392.477Q443.106 402.172 447.395 411.651C448.696 414.557 450.543 420.615 452.861 422.701C447.091 423.776 439.984 423.067 434.055 423.077L398.239 423.239L382.786 337.605C380.037 322.502 376.67 307.5 374.786 292.255Z"/><path fill="#ED9A2B" d="M517.757 495.929C525.797 499.682 532.541 506.631 540.051 511.385C554.985 520.838 571.136 528.401 587.215 535.667C593.073 538.314 598.949 541.318 605.014 543.429L605.255 599.012L529.007 599.022C525.533 564.61 521.926 530.274 517.757 495.929Z"/><path fill="#FABE4A" d="M417.332 292.072Q444.352 291.929 471.371 292.258C473.87 315.654 477.601 339.038 480.672 362.376C483.277 382.165 485.213 403.183 489.096 422.722C476.988 423.235 464.906 422.233 452.861 422.701C450.543 420.615 448.696 414.557 447.395 411.651Q443.106 402.172 439.334 392.477Q435.562 382.781 432.317 372.896Q429.071 363.011 426.363 352.966Q423.655 342.921 421.491 332.745C419.97 325.341 419.003 317.768 417.814 310.302C417.087 305.737 414.952 299.666 415.15 295.205C415.216 293.707 416.338 293.061 417.332 292.072Z"/><path fill="#FABE4A" d="M511.364 442.492Q558.442 441.528 605.524 442.234Q605.694 492.834 605.014 543.429C598.949 541.318 593.073 538.314 587.215 535.667C571.136 528.401 554.985 520.838 540.051 511.385C532.541 506.631 525.797 499.682 517.757 495.929Q515.289 479.015 513.463 462.02C512.699 455.512 511.694 449.043 511.364 442.492Z"/><path fill="#FABE4A" d="M624.484 442.242C655.925 442.019 687.683 441.095 719.096 442.278C713.04 483.961 708.671 525.919 703.522 567.716C689.923 565.319 676.169 563.455 662.695 560.39C649.798 557.456 637.28 553.395 624.497 550.097L624.484 442.242Z"/><path fill="#FABE4A" d="M738.626 441.996L825.311 442.005C821.716 459.123 818.965 476.451 815.722 493.645C811.216 517.545 806.327 541.437 802.279 565.415C794.833 564.17 785.815 566.942 778.368 567.84C766.063 569.323 733.986 570.76 723.293 567.878C726.122 543.221 728.751 518.49 731.975 493.883C734.237 476.616 737.265 459.364 738.626 441.996Z"/><path fill="#FABE4A" d="M846.527 291.755L854.855 291.747C850.77 309.4 847.805 327.499 844.345 345.298C839.289 371.308 833.944 397.299 829.27 423.379C802.845 422.705 776.196 423.425 749.75 423.494L741.302 423.511C742.045 407.26 744.861 391.168 746.896 375.045L757.188 291.999L846.527 291.755Z"/><path fill="#ED9A2B" d="M402.2 442.002L464.24 442C467.846 448.568 488.822 474.114 494.769 476.097L495.868 475.912L496.254 475.118C498.184 480.489 498.541 494.873 499.339 501.467C503.272 533.958 506.444 566.522 510.574 598.997L430.187 599.51C426.321 582.208 423.87 564.253 420.769 546.77L402.2 442.002Z"/><path fill="#FABE4A" d="M677.566 291.744L737.61 292.263C734.794 308.181 733.6 324.454 731.716 340.505L721.817 423.024L685.25 422.859C665.011 422.585 644.734 422.914 624.492 423.004C624.483 379.344 624.126 335.653 624.685 291.997L677.566 291.744Z"/><path fill="#FABE4A" d="M490.835 291.999L605.522 292L605.509 423.014L508.668 423.011C504.53 395.902 500.931 368.752 497.303 341.566C495.102 325.069 492.574 308.549 490.835 291.999Z"/></svg> 